<svg id="Capa_1" data-name="Capa 1" xmlns="http://www.w3.org/2000/svg" viewBox="0 0 194.84 62.06"><defs><style>.cls-1{fill:#fff;}</style></defs><title>tban</title><path class="cls-1" d="M277.95,176.88,292,207.17s6.86-1.46,8.94-4c-1.82-4.13-11.62-22.92-15.59-30.5a3.3,3.3,0,0,1,1.65-4.58l22.18-9.25a3.05,3.05,0,0,0,1.37-4.5l-3-4.52a3.05,3.05,0,0,0-3.81-1.1l-46.71,21.3a3.05,3.05,0,0,0-1.45,4.17l2.09,4.09a3.05,3.05,0,0,0,3.79,1.47l12.26-4.62A3.3,3.3,0,0,1,277.95,176.88Z" transform="translate(-255.31 -148.5)"/><path class="cls-1" d="M299.47,181.36a9,9,0,0,0,.39,1.66,2.69,2.69,0,0,0,2.84,1.77c4.11-.45,14.15-1.94,18.49-2.59a3,3,0,0,0,2.54-2.47,18.79,18.79,0,0,0,.31-4.41,2.78,2.78,0,0,0-3.41-2.55c-5.41,1.29-15,4.16-19.19,5.46A2.84,2.84,0,0,0,299.47,181.36Z" transform="translate(-255.31 -148.5)"/><path class="cls-1" d="M337.27,170.34l4.34,26.52a7.36,7.36,0,0,0,5.88,6.05c4.73.9,12,1.38,18.5-1.94a3.71,3.71,0,0,0,1.93-2.49c1.08-4.82,2.67-15.37-7.79-16.94a.81.81,0,0,1-.58-1.25c3.14-4.88,5.93-21.76-19.7-14.06A3.67,3.67,0,0,0,337.27,170.34Z" transform="translate(-255.31 -148.5)"/><path class="cls-1" d="M380.53,171.64l-7.77,31.07a3.48,3.48,0,0,0,2.86,4.28c2.43.38,5.51.47,7.52-.86a58.25,58.25,0,0,0,4.35-7.61,2.62,2.62,0,0,1,2.14-1.46l2.09-.17a2.54,2.54,0,0,1,2.41,1.28l3.53,6.21a3.93,3.93,0,0,0,2.71,1.93,28.15,28.15,0,0,0,5.26.5,3.54,3.54,0,0,0,3.36-4.39c-2-8.43-7.32-25.84-9.4-32.62a3.41,3.41,0,0,0-3.74-2.37l-12.63,1.78A3.24,3.24,0,0,0,380.53,171.64Z" transform="translate(-255.31 -148.5)"/><path class="cls-1" d="M410.36,173.61l8.84,32.28a4.8,4.8,0,0,0,3.8,3.47,17.11,17.11,0,0,0,3.56.27,3.59,3.59,0,0,0,3.38-3.92c-.46-5.29-1.46-12.47-1.46-12.47l10.45,14.21a7.22,7.22,0,0,0,4.69,2.88,18.47,18.47,0,0,0,2.76.23,3.76,3.76,0,0,0,3.78-4c-.64-10.63-2.57-33.79-3.18-41.06a3.16,3.16,0,0,0-2.62-2.84,20.61,20.61,0,0,0-7.07,0,2.81,2.81,0,0,0-2.3,3.08c.62,5.64,1.81,16.26,1.81,16.26l-12.41-14.45a4.31,4.31,0,0,0-4.09-1.44,21.86,21.86,0,0,0-8.61,3.67A3.57,3.57,0,0,0,410.36,173.61Z" transform="translate(-255.31 -148.5)"/></svg>